<?xml version="1.0" encoding="UTF-8"?>
<svg id="Capa_2" data-name="Capa 2" xmlns="http://www.w3.org/2000/svg" viewBox="0 0 1080 333">
  <defs>
    <style>
      .cls-1 {
        fill: #00205b;
      }

      .cls-2 {
        fill: #e63a8a;
      }
    </style>
  </defs>
  <g id="Capa_12" data-name="Capa 12">
    <g id="GetGo_Logo" data-name="GetGo Logo">
      <g id="Nineteenth_Regular_Font" data-name="Nineteenth Regular Font">
        <g>
          <path class="cls-2" d="M224.55,148.78h-28.35l-.08-.16-.08.16h-75.87c-24.55.67-27.14,35.39-2.81,39.59l2.81.4,51.18,7.28-26.13,50.04-1.26,2.4c-10.79,22.15,18.95,40.5,33.89,20.72,0,0,27.85-39.29,46.52-65.63l.17.02-.08-.16c9.37-13.2,16.4-23.13,16.4-23.13,9.42-12.8-.29-31.8-16.31-31.56v.02Z"/>
          <path class="cls-1" d="M124.75,291.25C55.96,291.25,0,235.29,0,166.49S55.96,41.74,124.75,41.74c36.95,0,71.78,16.24,95.57,44.56l-29.91,25.12c-16.35-19.45-40.27-30.61-65.66-30.61-47.25,0-85.69,38.44-85.69,85.69s38.44,85.69,85.69,85.69v39.06h0Z"/>
        </g>
        <path class="cls-1" d="M442.74,208.81h-140.88c6.33,28.39,30.07,43.19,53.82,43.19,19.79,0,33.24-7.2,45.11-15.6l20.98,29.99c-18.2,14.4-40.36,21.6-66.09,21.6-53.43,0-97.35-38.39-97.35-95.18s43.53-92.79,93.79-92.79c58.97,0,92.2,42,92.2,91.58,0,5.6-.39,11.6-1.58,17.2h0ZM402.38,174.42c-6.73-24.79-24.93-38.39-49.86-38.39-26.52,0-45.11,14.4-50.65,38.39h100.52-.01Z"/>
        <path class="cls-1" d="M601.16,208.81v12.4c0,43.19-24.93,66.79-65.69,66.79s-65.7-23.59-65.7-66.79V62.84h41.15v57.19h76.38v35.99h-76.38v65.19c0,20.4,5.94,29.99,24.53,29.99s24.53-9.6,24.53-29.99v-12.4h41.16Z"/>
        <g>
          <path class="cls-2" d="M843.85,148.78h-28.35l-.08-.16-.08.16h-75.87c-24.55.67-27.14,35.4-2.81,39.59l2.81.4,51.18,7.28-26.13,50.04-1.26,2.4c-10.79,22.15,18.95,40.5,33.89,20.72,0,0,27.85-39.29,46.52-65.63l.17.02-.08-.16c9.37-13.2,16.4-23.13,16.4-23.13,9.42-12.8-.29-31.8-16.31-31.56v.02Z"/>
          <path class="cls-1" d="M744.06,291.25c-68.79,0-124.75-55.96-124.75-124.75s55.96-124.75,124.75-124.75c36.95,0,71.78,16.24,95.57,44.56l-29.91,25.12c-16.35-19.45-40.27-30.61-65.66-30.61-47.25,0-85.69,38.44-85.69,85.69s38.44,85.69,85.69,85.69v39.06h0Z"/>
        </g>
        <path class="cls-1" d="M1080,194.3c0,55.08-45.63,92.46-100.71,92.46s-100.71-37.38-100.71-92.46,45.64-92.46,100.71-92.46,100.71,36.99,100.71,92.46h0ZM1037.51,194.3c0-32.65-25.58-56.26-58.22-56.26s-58.22,23.6-58.22,56.26,25.58,56.26,58.22,56.26,58.22-23.6,58.22-56.26Z"/>
      </g>
    </g>
  </g>
</svg>